# xmcd CD database file
#
# Track frame offsets:
#	150
#	16586
#	29418
#	38290
#	52515
#	91645
#	106804
#	121346
#	136258
#	149785
#	161672
#	175231
#
# Disc length: 2516 seconds
#
# Revision: 0
# Processed by: cddbd v1.5.2PL0 Copyright (c) Steve Scherf et al.
# Submitted via: CDex 1.70beta2
#
DISCID=8709d20c
DTITLE=Benny Goodman - And the angels sing
DYEAR=2005
DGENRE=Jazz
TTITLE0=Sometimes I'm happy
TTITLE1=Madhouse
TTITLE2=Walk Jennie walk
TTITLE3=More than you know
TTITLE4=Sing, sing, sing parts 1 and 2
TTITLE5=Don't be that way
TTITLE6=And the angels sing
TTITLE7=Flying home
TTITLE8=Dam that dream
TTITLE9=Gilly
TTITLE10=Air mail special
TTITLE11=Pound Ridge
EXTD=YEAR: 2005
EXTT0=
EXTT1=
EXTT2=
EXTT3=
EXTT4=
EXTT5=
EXTT6=
EXTT7=
EXTT8=
EXTT9=
EXTT10=
EXTT11=
PLAYORDER=
